# xmcd
# 
# Track frame offsets:
#     150
#     13119
#     35319
#     63526
#     79798
#     92102
#     115902
#     132006
#     148918
#     168934
#     192550
#     218014
#     233838
#     253262
# 
# Disc length: 3673
# 
# Revision: 1
# Processed by: cddbd v1.5.2PL0 Copyright (c) Steve Scherf et al.
# Submitted via: fre:ac v1.0.27
# 
DISCID=c60e570e
DTITLE=Various Artist - Christmas Memories
DYEAR=0
DGENRE=
TTITLE0=Mark Statler - The Christmas Waltz
TTITLE1=Mark Statler - Christmas Memories
TTITLE2=Mark Statler - Ave Maria
TTITLE3=Mark Statler - Blue Christmas
TTITLE4=Mark Statler - Christmas Time Is Here
TTITLE5=Mark Statler - Breath Of Heaven
TTITLE6=Mark Statler - Count Your Blessings
TTITLE7=Mark Statler - Happy Christmas
TTITLE8=Mark Statler - I'll Be Home For Christmas
TTITLE9=Mark Statler - Little Altar Boy
TTITLE10=Mark Statler - Shepherd's Prayer
TTITLE11=Mark Statler - Some Children See Him
TTITLE12=Mark Statler - White Christmas
TTITLE13=Mark Statler - Shepherd's Prayer (Radio Version)
EXTD=
EXTT0=
EXTT1=
EXTT2=
EXTT3=
EXTT4=
EXTT5=
EXTT6=
EXTT7=
EXTT8=
EXTT9=
EXTT10=
EXTT11=
EXTT12=
EXTT13=
PLAYORDER=
